<?xml version="1.0" encoding="UTF-8" standalone="no"?>
<svg
   xmlns:dc="http://purl.org/dc/elements/1.1/"
   xmlns:cc="http://creativecommons.org/ns#"
   xmlns:rdf="http://www.w3.org/1999/02/22-rdf-syntax-ns#"
   xmlns:svg="http://www.w3.org/2000/svg"
   xmlns="http://www.w3.org/2000/svg"
   xmlns:sodipodi="http://sodipodi.sourceforge.net/DTD/sodipodi-0.dtd"
   xmlns:inkscape="http://www.inkscape.org/namespaces/inkscape"
   width="200mm"
   height="100mm"
   viewBox="0 0 210 297"
   version="1.1"
   id="svg8"
   inkscape:version="1.0.2-2 (e86c870879, 2021-01-15)"
   sodipodi:docname="logo.svg">
  <defs
     id="defs2" />
  <sodipodi:namedview
     id="base"
     pagecolor="#ffffff"
     bordercolor="#666666"
     borderopacity="1.0"
     inkscape:pageopacity="0.0"
     inkscape:pageshadow="2"
     inkscape:zoom="0.92538756"
     inkscape:cx="589.92748"
     inkscape:cy="197.9899"
     inkscape:document-units="mm"
     inkscape:current-layer="g42"
     inkscape:document-rotation="0"
     showgrid="false"
     inkscape:window-width="1267"
     inkscape:window-height="729"
     inkscape:window-x="20"
     inkscape:window-y="0"
     inkscape:window-maximized="0" />
  <metadata
     id="metadata5">
    <rdf:RDF>
      <cc:Work
         rdf:about="">
        <dc:format>image/svg+xml</dc:format>
        <dc:type
           rdf:resource="http://purl.org/dc/dcmitype/StillImage" />
        <dc:title />
      </cc:Work>
    </rdf:RDF>
  </metadata>
  <g
     inkscape:label="Layer 1"
     inkscape:groupmode="layer"
     id="layer1">
    <g
       id="g42"
       transform="matrix(1.7716226,0,0,2.3179796,-83.495478,-163.99595)">
      <path
         style="fill:#d0d0d0;fill-opacity:1;stroke-width:0.368595"
         d="m 103.90122,176.94314 c -4.092435,-0.0988 -5.371327,-0.25986 -5.276261,-0.66463 0.06902,-0.29385 0.512013,-0.59787 0.984438,-0.6756 1.503493,-0.2474 1.743113,-1.91231 1.743113,-12.11153 v -9.01266 l -0.86438,1.7988 c -0.4754,0.98934 -1.442062,2.39257 -2.148125,3.11829 -2.196481,2.25762 -3.605543,2.76816 -7.744,2.80582 -3.394507,0.0309 -3.88593,-0.067 -5.300307,-1.05536 -1.436732,-1.00401 -1.567092,-1.22601 -1.663249,-2.83244 -0.05738,-0.95867 -0.0096,-3.17567 0.106181,-4.92665 0.170969,-2.5856 0.303892,-3.15848 0.707619,-3.04982 0.299464,0.0806 0.644814,0.94307 0.868627,2.16929 0.800059,4.38332 2.837478,6.51529 6.226338,6.51529 2.132395,0 2.937025,-0.40335 4.269943,-2.14051 1.793755,-2.33774 1.879389,-6.30367 0.212078,-9.82178 -0.514607,-1.08585 -2.277436,-3.48263 -3.917398,-5.32618 -5.885064,-6.61566 -7.438861,-9.84775 -7.426477,-15.44801 0.0055,-2.49144 0.165743,-3.68248 0.674189,-5.01124 0.904176,-2.36298 2.434459,-4.32903 4.307107,-5.53363 1.373288,-0.88338 2.041538,-1.00278 5.61209,-1.00278 2.996013,0 4.296702,0.17173 4.986864,0.6584 0.92692,0.65363 0.933,0.68201 0.83909,3.92184 -0.14475,4.9938 -0.54406,6.04923 -1.310389,3.46349 -0.987248,-3.33117 -3.010054,-5.21129 -5.606805,-5.21129 -3.06503,0 -4.988524,2.35231 -4.988524,6.10065 0,3.15849 1.10272,5.00401 6.462549,10.81576 2.552428,2.76764 4.236351,5.27722 5.169399,7.70404 0.4901,1.27474 0.50292,1.19274 0.5151,-3.29385 0.0141,-5.19575 -0.21418,-5.98249 -1.873451,-6.45679 -0.634603,-0.18139 -1.076006,-0.56838 -1.076006,-0.94335 0,-0.53303 0.897323,-0.63733 5.552747,-0.64541 3.05402,-0.005 5.70266,0.11983 5.88587,0.27809 0.52037,0.44949 -0.0154,1.25671 -0.83413,1.25671 -1.73733,0 -1.71868,-0.21281 -1.71868,19.61197 0,10.53188 0.12583,18.705 0.2977,19.33681 0.43624,1.60366 2.07347,2.12128 6.15117,1.94477 3.94076,-0.17059 4.36262,-0.46339 5.40282,-3.74999 0.84689,-2.67583 1.35286,-2.04358 1.08912,1.36095 -0.29535,3.81253 -0.71339,5.81338 -1.27784,6.11611 -0.46498,0.24938 -2.41114,0.24115 -15.03813,-0.0636 z m 28.94135,-4.72375 c 5.84601,-1.53898 9.04343,-3.31598 11.37781,-6.32337 3.70762,-4.77653 4.4028,-12.00352 1.92512,-20.01318 -2.88359,-9.32184 -10.11697,-19.84671 -19.53859,-28.42945 -21.40604,-19.50012 -48.560731,-25.589926 -58.835896,-13.19476 -1.775453,2.14178 -3.23078,6.34224 -3.43612,9.91759 -0.257745,4.48775 1.217786,10.85846 3.667553,15.83491 1.592153,3.23431 0.847323,2.68303 -1.039409,-0.7693 -4.022268,-7.35993 -5.91233,-13.66298 -5.917268,-19.73314 -0.004,-4.85669 0.873612,-7.92373 3.195866,-11.169411 2.138952,-2.989484 4.749839,-4.897112 8.714337,-6.367071 2.677587,-0.992796 3.598531,-1.110369 8.910115,-1.137495 9.759423,-0.04984 17.926304,2.282207 28.942562,8.264528 21.98756,11.940229 39.53889,33.050309 42.16734,50.717269 1.88237,12.65226 -5.31233,21.89104 -17.48327,22.45044 -1.88629,0.0867 -3.07886,0.0653 -2.65015,-0.0476 z m -6.85922,-0.5461 c 0.25722,-0.20099 1.30948,-0.614 2.33837,-0.9178 2.59986,-0.76765 5.96128,-3.03943 7.69911,-5.20337 8.71788,-10.85538 -0.55006,-32.17134 -19.99673,-45.99186 -10.9924,-7.81217 -21.267676,-11.57673 -31.598391,-11.57673 -7.88256,0 -12.931825,2.10799 -16.511899,6.89347 -1.386906,1.85387 -1.49627,1.33322 -0.50095,-2.38483 2.838741,-10.60419 15.113684,-13.689991 31.601278,-7.94425 20.999412,7.31806 39.493652,25.10079 44.360682,42.65403 1.13692,4.10039 1.15125,9.3013 0.0348,12.63704 -2.32684,6.95228 -6.97848,10.32554 -16.49095,11.95885 -0.82697,0.14199 -1.211,0.0909 -0.93534,-0.12455 z"
         id="path58" />
      <path
         style="fill:#b9b9b9;fill-opacity:1;stroke-width:0.368595"
         d="m 104.52457,176.94303 c -4.590953,-0.0979 -5.9956,-0.25586 -5.899826,-0.66361 0.06913,-0.29435 0.490443,-0.59584 0.936243,-0.66999 1.548123,-0.25748 1.628633,-0.78685 1.729263,-11.36981 0.0892,-9.38616 0.0688,-9.79658 -0.43684,-8.75823 -1.830769,3.75967 -4.089941,5.75025 -7.455925,6.56949 -3.569202,0.86871 -8.739813,-0.35005 -9.600056,-2.26281 -0.49922,-1.11002 0.121667,-9.31792 0.704857,-9.31792 0.273948,0 0.550801,0.65306 0.698742,1.64826 0.134765,0.90654 0.456578,2.22003 0.715139,2.91885 1.457544,3.93936 6.233616,5.4808 8.955258,2.89024 1.690798,-1.60936 2.272017,-3.10722 2.272017,-5.8552 0,-3.38394 -1.113398,-5.9393 -3.984156,-9.14404 -5.397093,-6.025 -7.309382,-9.14668 -8.186592,-13.36405 -1.228259,-5.90512 0.634771,-11.26203 4.811762,-13.83561 1.839412,-1.13333 6.901436,-1.49525 9.385574,-0.67105 l 1.7148,0.56894 0.0964,2.82386 c 0.10521,3.08168 -0.13643,5.65631 -0.53086,5.65631 -0.13766,0 -0.498736,-0.77001 -0.802381,-1.71114 -1.069374,-3.31443 -2.79048,-4.82527 -5.496804,-4.82527 -1.958068,0 -3.443388,0.85968 -4.243968,2.45632 -1.959745,3.90844 -0.671219,7.6262 4.586062,13.2321 2.72876,2.9097 5.147698,6.29536 6.148331,8.60548 l 0.70769,1.63384 0.002,-4.58747 c 0.002,-5.00497 -0.38136,-6.51869 -1.652939,-6.53109 -0.820453,-0.008 -1.685276,-0.69985 -1.390255,-1.11218 0.162732,-0.22744 6.615654,-0.34526 11.229094,-0.20502 0.99594,0.0303 0.56449,0.84741 -0.69838,1.32269 -0.95144,0.35807 -1.29972,0.74632 -1.48097,1.6509 -0.31551,1.57468 -0.30575,34.28303 0.0108,36.36927 0.38204,2.51747 1.47107,3.11122 5.73917,3.12902 4.09219,0.0171 4.77423,-0.42458 5.96263,-3.86108 1.04998,-3.0362 1.42635,-2.1228 0.99627,2.41781 -0.48488,5.11916 -0.57918,5.20507 -5.57559,5.0796 -2.16738,-0.0544 -6.65217,-0.15676 -9.96622,-0.22741 z m 30.17217,-5.09606 c 11.56553,-3.10844 15.76394,-13.41795 11.07911,-27.20558 -9.45518,-27.82691 -48.984289,-53.258578 -70.768982,-45.530323 -4.474136,1.587223 -8.21454,5.280033 -9.653196,9.530353 -1.944218,5.74394 -1.178788,12.57979 2.336356,20.86537 l 0.944237,2.22567 -1.118642,-1.7357 c -2.355091,-3.65417 -4.962714,-10.14733 -5.907684,-14.71054 -0.63497,-3.06623 -0.667792,-8.13684 -0.07018,-10.84162 3.054489,-13.824455 19.741849,-17.725524 40.438311,-9.453414 11.12516,4.44658 23.20111,12.649574 32.23815,21.898844 12.97855,13.28334 20.31516,28.73823 18.8611,39.73171 -0.47128,3.56311 -1.495,6.1241 -3.5158,8.79524 -3.07164,4.0602 -7.9823,6.47798 -13.91091,6.8491 l -3.27372,0.20493 z m -5.97455,-1.1221 c 8.0914,-2.96291 12.1125,-10.90062 10.16507,-20.06597 -3.96747,-18.67236 -25.53478,-37.92674 -47.355907,-42.27733 -4.022085,-0.8019 -11.270787,-0.68245 -14.342006,0.23636 -3.752876,1.12272 -6.773586,3.04311 -8.742238,5.5578 -1.846789,2.35902 -1.91203,2.32737 -1.277402,-0.61985 1.226057,-5.69381 5.237049,-9.74857 11.117651,-11.23895 2.805181,-0.71095 9.223279,-0.606 13.243995,0.21655 18.733257,3.83246 39.007957,18.73533 47.882517,35.19596 5.77768,10.71647 6.35467,20.09801 1.64127,26.68565 -1.92258,2.68707 -5.78435,5.26973 -9.45971,6.32641 -3.99247,1.14785 -6.02125,1.13611 -2.87324,-0.0166 z"
         id="path56" />
      <path
         style="fill:#a3a3a3;fill-opacity:1;stroke-width:0.368595"
         d="m 105.25856,176.9428 c -6.099212,-0.1256 -7.888698,-0.53229 -5.741245,-1.3048 0.657775,-0.23662 1.200795,-0.79791 1.440545,-1.48903 0.51212,-1.47624 0.89698,-19.97486 0.41557,-19.97486 -0.18299,0 -0.3327,0.30693 -0.3327,0.68206 0,1.32988 -3.198405,5.2334 -5.154081,6.29035 -3.720369,2.01067 -11.200143,1.08368 -12.039858,-1.49214 -0.412168,-1.26432 0.06126,-9.04943 0.564448,-9.28195 0.211903,-0.0979 0.569459,0.82658 0.860087,2.22383 0.935501,4.49763 2.805901,6.50706 6.104135,6.55787 1.668097,0.0257 2.281383,-0.17812 3.466984,-1.15226 1.90358,-1.56404 2.596436,-3.55514 2.358471,-6.77764 -0.232041,-3.14226 -1.206347,-5.11501 -4.191947,-8.48774 -3.818933,-4.31413 -6.149677,-7.57798 -7.035028,-9.8515 -2.998617,-7.70023 -0.831319,-15.21349 5.098496,-17.67468 1.914059,-0.79444 5.580989,-0.84138 8.097593,-0.10366 l 1.7148,0.50268 0.0993,2.39668 c 0.1145,2.76432 -0.1801,6.10065 -0.5387,6.10065 -0.13493,0 -0.493766,-0.77001 -0.797411,-1.71114 -1.07875,-3.34349 -2.788413,-4.82575 -5.564736,-4.82459 -3.087528,10e-4 -5.010199,2.32791 -5.010199,6.06284 0,2.84296 0.965707,4.75845 4.091195,8.11497 3.58696,3.85209 6.736929,8.21893 7.530421,10.43953 0.38587,1.07985 0.76933,1.96336 0.85214,1.96336 0.0828,0 0.0599,-2.30409 -0.0509,-5.12019 -0.22359,-5.68143 -0.44827,-6.38304 -2.19035,-6.83982 -0.588973,-0.15442 -1.070858,-0.46798 -1.070858,-0.69678 0,-0.24959 2.369928,-0.41602 5.923868,-0.41602 3.55395,0 5.92388,0.16643 5.92388,0.41602 0,0.2288 -0.49486,0.54576 -1.09969,0.70435 -0.64264,0.1685 -1.25816,0.67475 -1.48097,1.21808 -0.28373,0.69187 -0.38128,5.56178 -0.38128,19.03335 0,16.47785 0.0488,18.20764 0.54326,19.26203 0.68203,1.45432 1.95383,1.85315 5.90449,1.85162 3.51355,-0.001 4.37051,-0.57629 5.39297,-3.61815 0.65645,-1.95297 1.28041,-2.19598 1.21401,-0.47281 -0.14033,3.64206 -0.53695,6.20599 -1.07673,6.9604 -0.52817,0.73819 -1.00717,0.82412 -4.10549,0.73651 -1.92915,-0.0546 -6.30965,-0.15689 -9.73444,-0.22742 z m 30.07827,-5.29255 c 4.98652,-1.57594 7.11704,-3.05262 9.4642,-6.55973 3.65786,-5.46553 3.91505,-11.92229 0.82538,-20.72101 -2.54955,-7.26056 -6.6408,-13.91334 -12.78384,-20.78777 -8.21686,-9.19516 -20.37033,-17.80812 -31.17828,-22.09549 -7.841054,-3.110449 -15.813853,-4.447087 -21.439442,-3.594322 -7.997505,1.21232 -12.774481,4.696302 -14.957396,10.908852 -0.772152,2.19753 -0.85919,2.90152 -0.841773,6.80855 0.02226,4.99515 0.673921,7.90618 2.933567,13.10464 1.62484,3.73804 0.601968,2.53482 -1.558702,-1.83353 -1.940302,-3.92283 -3.846208,-9.53453 -4.366901,-12.8578 -0.598464,-3.81965 -0.268323,-8.82296 0.769714,-11.66504 3.543383,-9.701592 14.111399,-13.603777 28.860322,-10.656522 18.234011,3.643679 39.525671,18.290072 51.906741,35.706312 6.72952,9.4663 10.13802,18.3211 10.13802,26.33711 0,4.93754 -0.82047,7.75361 -3.24643,11.14257 -3.14919,4.3993 -7.95608,6.89291 -14.2134,7.37333 l -2.96194,0.22741 z m -6.46011,-0.87953 c 4.53048,-1.75697 7.8997,-5.07911 9.5311,-9.39794 0.7313,-1.93597 0.82432,-2.66332 0.80918,-6.32715 -0.0142,-3.43682 -0.15415,-4.59551 -0.82418,-6.82408 -1.20784,-4.01736 -3.36724,-8.41595 -6.07958,-12.38382 -16.90792,-24.73449 -52.446599,-36.610288 -64.072859,-21.41094 -1.518578,1.98528 -1.536344,1.99504 -1.321734,0.72591 1.140114,-6.74217 4.895846,-10.96836 11.234539,-12.64183 3.345887,-0.88334 10.800796,-0.66238 15.248863,0.45197 20.433121,5.11899 40.805091,21.72021 48.160371,39.2461 2.68778,6.40436 3.28001,12.95192 1.61433,17.84793 -2.05777,6.04851 -7.57415,10.32538 -14.5472,11.27849 l -1.86675,0.25516 z"
         id="path54" />
      <path
         style="fill:#8c8c8c;fill-opacity:1;stroke-width:0.368595"
         d="m 106.18514,176.94907 c -7.370854,-0.12933 -8.469203,-0.3226 -6.703327,-1.17959 1.779007,-0.86337 1.933057,-1.80022 2.074747,-12.6173 0.10371,-7.91827 0.0552,-9.4867 -0.27278,-8.81659 -0.21942,0.44832 -0.68115,1.42052 -1.02607,2.16043 -0.945311,2.02787 -3.100266,4.12009 -5.083625,4.93562 -3.795609,1.56072 -10.673212,0.50893 -11.239116,-1.7188 -0.367826,-1.44797 0.03678,-9.13821 0.491828,-9.34806 0.212461,-0.098 0.461501,0.36435 0.56823,1.05487 0.82605,5.34453 3.636098,8.43102 7.169161,7.87444 3.035962,-0.47827 4.844352,-2.8395 5.068552,-6.61807 0.238264,-4.01568 -0.8083,-6.21809 -5.416212,-11.39798 -5.319032,-5.97927 -7.039381,-9.61167 -7.059229,-14.90511 -0.01905,-5.08276 1.45833,-8.14777 5.059249,-10.49599 1.516137,-0.9887 2.112138,-1.11775 5.144415,-1.11395 1.886285,0.002 4.025894,0.25035 4.754687,0.55106 l 1.32508,0.54676 -0.003,2.48882 c -0.002,1.36885 -0.0907,3.22656 -0.19731,4.12825 -0.15648,1.32326 -0.27607,1.54407 -0.62013,1.14498 -0.234447,-0.27194 -0.426265,-0.75774 -0.426265,-1.07956 0,-0.84583 -1.809577,-3.59921 -2.868441,-4.3645 -1.296452,-0.93701 -4.391264,-0.87139 -5.600975,0.11876 -1.559104,1.27613 -2.287088,2.9721 -2.287088,5.32817 0,2.85054 1.02593,4.86254 4.244594,8.32427 3.390139,3.64615 6.859495,8.50061 7.552325,10.56753 0.30127,0.89875 0.63217,1.6341 0.73535,1.6341 0.10318,0 0.10755,-2.27174 0.01,-5.04829 -0.19883,-5.64242 -0.48084,-6.49917 -2.295953,-6.97509 -2.485865,-0.6518 -0.63854,-1.04943 4.875443,-1.04943 5.52316,0 7.36111,0.39769 4.86396,1.05243 -1.95727,0.5132 -1.90202,-0.0562 -1.90202,19.60421 0,9.84948 0.10745,18.44491 0.23879,19.10097 0.44078,2.20188 1.50614,2.72901 5.51547,2.72901 4.36771,0 5.26443,-0.50712 6.13636,-3.47029 0.31938,-1.0854 0.70596,-1.97418 0.85908,-1.97508 0.30921,-0.002 0.065,6.28989 -0.29295,7.54861 -0.3404,1.19687 -1.48327,1.61147 -4.13686,1.50074 -1.31781,-0.055 -5.48267,-0.15415 -9.25524,-0.22035 z m 29.52448,-5.33342 c 5.36186,-1.58032 9.45419,-5.38774 11.05998,-10.28996 6.52723,-19.92664 -20.92273,-53.30088 -50.873289,-61.852833 -18.626443,-5.31851 -31.645948,1.218423 -31.645948,15.889043 0,4.37986 1.281795,9.69593 3.44814,14.3007 1.167077,2.48073 0.408934,1.52307 -1.207407,-1.52516 -6.30715,-11.89453 -7.088166,-23.13964 -2.079647,-29.942959 5.569129,-7.564832 17.86121,-9.452467 32.42021,-4.978604 10.113051,3.107654 22.186521,10.104063 31.669651,18.352123 5.40951,4.70499 9.64149,9.40883 14.1856,15.76729 4.90862,6.86851 7.57148,12.01974 9.23529,17.86542 0.91168,3.20312 1.00491,3.96583 1.01702,8.31976 0.0122,4.37266 -0.0623,5.00848 -0.84786,7.24431 -2.01582,5.73699 -6.7972,9.62047 -13.63671,11.07585 -4.40086,0.93646 -6.18857,0.78994 -2.74503,-0.22498 z m -6.29666,-1.03106 c 6.50776,-2.70853 9.97704,-8.01426 9.97704,-15.25833 0,-15.58311 -16.41186,-35.00002 -36.94625,-43.71119 -14.326462,-6.07762 -28.294731,-5.07329 -34.128395,2.45385 -1.135706,1.4654 -1.258947,1.5327 -1.258947,0.68751 0,-2.79577 2.884283,-7.87823 5.549212,-9.77839 6.552201,-4.67187 18.871264,-3.90107 31.98712,2.00143 19.24112,8.65905 35.33218,25.68397 38.74819,40.99701 2.63756,11.82345 -2.13064,20.32191 -12.87579,22.9488 -3.65546,0.89366 -3.85934,0.82765 -1.05218,-0.34069 z"
         id="path52" />
      <path
         style="fill:#ffffff;fill-opacity:1;stroke-width:0.368595"
         d="m 106.8187,176.93476 c -7.226083,-0.10838 -9.657564,-0.47646 -7.370523,-1.11575 1.798613,-0.50276 1.994863,-1.556 2.152213,-11.55015 0.078,-4.95294 0.0892,-9.3806 0.0249,-9.83925 -0.0904,-0.64478 -0.33688,-0.33907 -1.08693,1.34795 -1.954835,4.39683 -4.88804,6.28651 -9.744415,6.27772 -2.007665,-0.003 -3.624424,-0.26933 -4.874676,-0.80108 l -1.870696,-0.79564 -0.07883,-4.55845 c -0.0784,-4.53324 0.236226,-6.53878 0.825314,-5.26093 0.153348,0.33263 0.364873,1.357 0.47006,2.27637 0.580439,5.07327 5.696835,8.09918 9.257088,5.47477 1.873615,-1.38114 2.77712,-3.34542 2.77712,-6.03769 0,-4.13351 -0.831418,-5.79623 -5.624819,-11.24885 -5.334228,-6.06783 -6.601547,-8.75193 -6.776448,-14.35216 -0.112261,-3.59447 -0.07772,-3.82404 0.921945,-6.12827 2.292641,-5.28453 8.012657,-7.3972 14.05153,-5.1899 1.163027,0.42511 1.169167,0.4393 1.165747,2.6983 -0.004,2.80512 -0.31179,5.53915 -0.6231,5.53915 -0.12824,0 -0.40301,-0.5731 -0.610597,-1.27355 -1.788339,-6.03422 -8.307348,-6.85594 -10.393097,-1.31004 -1.303008,3.46463 -0.02538,6.7854 4.466422,11.60897 3.425838,3.67888 5.939259,7.24837 6.932362,9.84515 l 0.69912,1.82808 0.0897,-4.03235 c 0.1398,-6.28735 -0.54973,-8.38682 -2.75448,-8.38682 -0.334892,0 -0.608896,-0.19609 -0.608896,-0.43576 0,-0.27522 2.182476,-0.43576 5.923866,-0.43576 3.7414,0 5.92388,0.16054 5.92388,0.43576 0,0.23967 -0.33522,0.43576 -0.74492,0.43576 -0.4097,0 -1.07614,0.37486 -1.48097,0.83302 l -0.73605,0.83302 v 18.01361 c 0,9.90748 0.10745,18.55038 0.23879,19.20644 0.44533,2.22459 1.49354,2.72901 5.67105,2.72901 4.37828,0 4.98578,-0.35803 6.14567,-3.622 l 0.72596,-2.04288 0.0975,1.87475 c 0.11127,2.13998 -0.45902,6.48086 -0.90166,6.86321 -0.41721,0.36037 -3.32536,0.43054 -12.27908,0.29624 z m 29.14169,-5.36155 c 10.83249,-3.39001 14.55004,-14.02366 9.66284,-27.63946 -1.72236,-4.79853 -3.90908,-8.78036 -7.77753,-14.16221 -10.9168,-15.18761 -28.17932,-27.14599 -45.067216,-31.219718 -4.795556,-1.156791 -13.489221,-1.06346 -17.065023,0.183197 -7.086522,2.470631 -11.071414,7.843641 -11.394396,15.363571 -0.191921,4.46841 0.321164,7.48376 2.108128,12.38924 0.832516,2.28538 1.46256,4.15523 1.400101,4.15523 -0.292618,0 -4.263922,-8.80721 -4.952379,-10.98295 -3.407196,-10.76781 -1.630013,-19.947502 4.77895,-24.684716 3.893836,-2.878149 8.139733,-4.044666 14.679897,-4.033157 19.383008,0.03412 44.534008,14.879433 59.509508,35.125343 7.75722,10.48726 11.51746,20.14207 11.20116,28.76017 -0.10721,2.92127 -0.29814,3.93235 -1.17843,6.24049 -2.2953,6.01834 -7.12788,9.68113 -14.47082,10.96798 -3.78585,0.66347 -4.40053,0.46511 -1.43479,-0.46301 z m -5.29312,-1.40398 c 15.59942,-7.86934 9.8252,-31.58818 -11.91486,-48.94285 -8.47732,-6.76729 -19.331663,-11.80271 -28.616428,-13.2754 -4.442337,-0.70461 -10.983751,-0.30408 -14.193766,0.8691 -3.085985,1.12784 -5.808045,2.95698 -7.611546,5.11472 l -1.375891,1.64614 0.227876,-1.26895 c 0.90407,-5.03444 3.207508,-8.1967 7.568813,-10.39078 11.665822,-5.868835 35.111042,2.15124 51.699552,17.68525 4.82571,4.51894 9.51528,10.39286 12.63331,15.82386 4.48589,7.81353 6.05278,16.39078 4.11358,22.51791 -1.66993,5.27628 -7.12293,9.87111 -13.0055,10.95874 l -1.55891,0.28823 z"
         id="path50" />
      <path
         style="fill:#606060;fill-opacity:1;stroke-width:0.368595"
         d="m 98.858247,176.39788 c -0.371046,-0.33514 -0.306626,-0.42517 0.311783,-0.43576 2.08917,-0.0358 2.31311,-1.21892 2.43316,-12.85493 l 0.1034,-10.02248 -1.03642,2.39668 c -1.211507,2.80158 -3.267269,4.90934 -5.78657,5.93295 -2.270077,0.92234 -7.753173,0.66257 -9.665848,-0.45794 l -1.325076,-0.77628 0.0048,-4.41922 c 0.0042,-3.87797 0.299795,-6.1358 0.719557,-5.49601 0.07407,0.11289 0.365911,1.3313 0.648539,2.70756 0.870099,4.237 3.077174,6.43078 6.469754,6.43078 1.784535,0 3.954116,-1.53637 4.860007,-3.44158 0.918325,-1.93136 0.958214,-5.48349 0.08834,-7.8666 -0.590124,-1.6167 -2.527439,-4.23627 -6.838609,-9.24694 -2.182142,-2.53619 -4.136805,-6.16099 -4.674243,-8.66808 -0.612797,-2.85865 -0.428303,-6.53389 0.451926,-9.00266 1.521216,-4.26656 4.497409,-6.33216 9.18235,-6.37293 1.629065,-0.0142 3.698523,0.2297 4.598796,0.54196 1.602327,0.55576 1.636807,0.6013 1.634147,2.15838 -0.004,2.34955 -0.36725,6.16612 -0.58687,6.16612 -0.10502,0 -0.529568,-0.89214 -0.943444,-1.98253 -0.893869,-2.35497 -1.915556,-3.4597 -3.87811,-4.19332 -4.344175,-1.62391 -8.096274,3.85911 -6.186502,9.04046 0.741042,2.0105 1.669263,3.26345 5.705403,7.70137 3.224906,3.54593 4.933043,6.15149 5.807683,8.85894 l 0.55223,1.70945 0.0968,-4.35761 c 0.14309,-6.44394 -0.52425,-8.49732 -2.761593,-8.49732 -0.334892,0 -0.608896,-0.19609 -0.608896,-0.43576 0,-0.27522 2.182479,-0.43576 5.923869,-0.43576 3.7414,0 5.92388,0.16054 5.92388,0.43576 0,0.23967 -0.33522,0.43576 -0.74492,0.43576 -0.4097,0 -1.07614,0.37471 -1.48097,0.83269 l -0.73605,0.83269 -0.088,17.36872 c -0.0484,9.55279 0.0254,18.13201 0.16414,19.06491 0.44153,2.97015 1.34309,3.51609 5.80638,3.51609 4.4504,0 5.18031,-0.41845 6.12975,-3.51416 0.32603,-1.06307 0.68852,-1.93284 0.80551,-1.93284 0.2929,0 -0.10362,6.16006 -0.4873,7.57052 l -0.31139,1.14468 -9.90682,-0.007 c -5.85763,-0.004 -10.097971,-0.17933 -10.374494,-0.42909 z m 36.478583,-4.5206 c 5.90363,-1.91393 9.78072,-5.43645 11.52108,-10.46747 0.90597,-2.61896 1.19333,-7.45637 0.64069,-10.7852 -2.5051,-15.08937 -17.57845,-33.91286 -35.38959,-44.19425 -16.432565,-9.485618 -32.210595,-11.540955 -41.186306,-5.36516 -7.083504,4.87385 -8.708859,14.50841 -4.37289,25.92103 1.388122,3.65365 0.931691,3.16131 -1.168206,-1.26011 -7.639747,-16.08579 -4.770738,-28.989623 7.442781,-33.475125 3.156394,-1.15921 10.805878,-1.588651 15.639558,-0.878009 10.016366,1.472599 21.187433,6.42043 32.297993,14.305254 19.71118,13.98842 32.96455,34.20724 32.27444,49.2366 -0.45367,9.88018 -6.65931,16.10169 -17.23188,17.27597 l -2.18248,0.2424 z m -5.04699,-1.44195 c 0.22507,-0.12588 0.49399,-0.1104 0.59759,0.0344 0.1036,0.1448 -0.0805,0.24779 -0.40922,0.22887 -0.36321,-0.0209 -0.43708,-0.12417 -0.18837,-0.26327 z m 5.98234,-4.66022 c 0,-0.0905 0.24552,-0.43365 0.54562,-0.76258 0.4945,-0.54203 0.50553,-0.52662 0.11771,0.16453 -0.4073,0.72586 -0.66333,0.9567 -0.66333,0.59805 z m 5.11282,-3.4305 c -0.12335,-0.29958 -0.10946,-0.39933 0.0309,-0.22166 0.14032,0.17767 0.4785,0.0796 0.7515,-0.21788 0.43917,-0.47859 0.44706,-0.45305 0.0684,0.22166 -0.51,0.9089 -0.56092,0.92194 -0.85081,0.21788 z m -1.97038,-4.50285 c 0.015,-0.50764 0.0888,-0.61089 0.18836,-0.26327 0.0901,0.31456 0.079,0.69041 -0.0246,0.83521 -0.10361,0.14479 -0.1773,-0.11258 -0.16376,-0.57194 z m 0,-5.66488 c 0.015,-0.50764 0.0888,-0.61089 0.18836,-0.26328 0.0901,0.31457 0.079,0.69041 -0.0246,0.83521 -0.10361,0.1448 -0.1773,-0.11257 -0.16376,-0.57193 z m -7.35324,-17.17889 c -0.31133,-0.4808 -0.50845,-0.95183 -0.43805,-1.04672 0.0704,-0.0949 0.38008,0.29849 0.68817,0.87419 0.68043,1.27143 0.52904,1.37585 -0.25012,0.17253 z m 4.48281,-1.19567 c -0.38782,-0.69114 -0.37679,-0.70655 0.11771,-0.16452 0.51936,0.56926 0.68452,0.9271 0.42791,0.9271 -0.0647,0 -0.31027,-0.34316 -0.54562,-0.76258 z m -1.84771,-2.61456 -1.07446,-1.6341 1.16919,1.5017 c 0.64305,0.82594 1.16918,1.56128 1.16918,1.6341 0,0.33276 -0.26383,0.0193 -1.26391,-1.5017 z m -19.00197,-12.31023 c -0.281,-0.25381 -0.31946,-0.42508 -0.0963,-0.42908 0.20423,-0.003 0.45804,0.18942 0.56402,0.42908 0.23923,0.54101 0.1313,0.54101 -0.46768,0 z m -48.428628,-3.88701 c 0.20095,-0.31724 0.291165,-0.84703 0.20048,-1.17733 -0.09069,-0.33029 -0.09474,-0.60054 -0.009,-0.60054 0.447586,0 0.425764,1.31899 -0.02978,1.79911 -0.434665,0.45813 -0.463022,0.4544 -0.161721,-0.0212 z m 25.610034,-6.8689 c 0.225066,-0.12588 0.493982,-0.1104 0.597584,0.0344 0.103603,0.1448 -0.08055,0.24779 -0.409214,0.22887 -0.363212,-0.0209 -0.437089,-0.12417 -0.18837,-0.26327 z m -2.513749,-0.42669 c 0.214351,-0.12088 0.565107,-0.12088 0.779457,0 0.214351,0.12089 0.03897,0.2198 -0.389728,0.2198 -0.428701,0 -0.604079,-0.0989 -0.389729,-0.2198 z m -9.038064,-0.45536 c 0.38783,-0.10423 0.949039,-0.10027 1.247131,0.009 0.298093,0.10906 -0.01924,0.19434 -0.705146,0.18951 -0.685922,-0.005 -0.929814,-0.0941 -0.541985,-0.19831 z m 5.300307,0 c 0.38783,-0.10423 0.949039,-0.10027 1.247131,0.009 0.298092,0.10906 -0.01924,0.19434 -0.705147,0.18951 -0.685922,-0.005 -0.929814,-0.0941 -0.541984,-0.19831 z m 4.692592,-4.34708 c 0.225067,-0.12587 0.493982,-0.1104 0.597585,0.0344 0.103602,0.14479 -0.08055,0.24779 -0.409215,0.22887 -0.363211,-0.0209 -0.437088,-0.12417 -0.18837,-0.26327 z m -2.806045,-0.43576 c 0.225067,-0.12587 0.493983,-0.1104 0.597585,0.0344 0.103602,0.14479 -0.08055,0.24779 -0.409215,0.22887 -0.363211,-0.0209 -0.437088,-0.12417 -0.18837,-0.26327 z m -5.004374,-0.44628 c 0.387829,-0.10423 0.949038,-0.10027 1.247131,0.009 0.298092,0.10907 -0.01924,0.19435 -0.705147,0.18951 -0.685922,-0.005 -0.929814,-0.0941 -0.541984,-0.1983 z"
         id="path48" />
      <path
         style="fill:#494949;fill-opacity:1;stroke-width:0.368595"
         d="m 98.759602,176.30345 c -0.216985,-0.19285 -0.01578,-0.33073 0.488374,-0.33466 2.135094,-0.0166 2.510044,-2.41021 2.356054,-15.0404 -0.0935,-7.66572 -0.10722,-7.80804 -0.60646,-6.27273 -0.73446,2.25867 -2.596736,4.6853 -4.606622,6.00264 -1.588146,1.04093 -2.085502,1.14161 -5.639052,1.14161 -3.087267,0 -4.205092,-0.1708 -5.378252,-0.82178 l -1.480968,-0.82178 v -4.26276 c 0,-4.23467 0.155149,-5.64132 0.622224,-5.64132 0.134048,0 0.341206,0.72622 0.460348,1.61383 0.622926,4.64085 2.70498,7.19592 6.081013,7.46254 3.234525,0.25544 5.483632,-1.72964 6.227848,-5.49675 0.747823,-3.78535 -0.748475,-7.418 -5.026022,-12.20197 -5.420524,-6.06227 -7.09378,-9.37669 -7.362253,-14.58332 -0.202759,-3.93219 0.438812,-6.24229 2.427771,-8.74161 1.972069,-2.4781 4.192536,-3.47167 7.678214,-3.4357 1.439641,0.0148 3.405263,0.25556 4.368051,0.53491 l 1.75052,0.50792 -0.19301,2.24529 c -0.10616,1.2349 -0.19424,2.98063 -0.19573,3.87939 -0.004,2.12044 -0.39007,2.07268 -1.10276,-0.13626 -1.073633,-3.32764 -3.557868,-5.12702 -6.342029,-4.59367 -2.640504,0.50584 -4.405662,3.05563 -4.405662,6.36403 0,3.05972 1.245719,5.12464 6.674736,11.06416 2.575069,2.81721 5.484795,7.47779 5.484795,8.78514 0,0.319 0.15207,0.71135 0.33794,0.8719 0.23798,0.20557 0.30715,-1.3454 0.23384,-5.24288 -0.0979,-5.20392 -0.14811,-5.58454 -0.84016,-6.36684 -0.40483,-0.45762 -1.141418,-0.83204 -1.636859,-0.83204 -0.495445,0 -0.900809,-0.19609 -0.900809,-0.43576 0,-0.27476 2.124378,-0.43576 5.749578,-0.43576 3.49674,0 5.82508,0.17074 5.94227,0.43576 0.10963,0.2479 -0.15737,0.43576 -0.61933,0.43576 -0.44662,0 -1.15641,0.48132 -1.57732,1.0696 l -0.76528,1.06959 0.002,17.55915 c 9.3e-4,10.05084 0.13159,18.21132 0.30541,19.08432 0.4703,2.36199 1.2322,2.7858 5.30494,2.95089 4.44221,0.18007 5.37777,-0.33498 6.54744,-3.60453 l 0.77945,-2.1788 0.075,1.74304 c 0.0413,0.95867 -0.099,2.91959 -0.31179,4.3576 l -0.3868,2.61456 -10.0757,0.008 c -5.54163,0.004 -10.241753,-0.13975 -10.444717,-0.32014 z m 38.248858,-4.9171 c 4.84057,-1.73548 8.84016,-6.00325 10.12541,-10.80434 3.96278,-14.80309 -9.16441,-36.78154 -30.6599,-51.33295 -7.77554,-5.26366 -14.95463,-8.57118 -23.227812,-10.701413 -4.330288,-1.114988 -14.240446,-1.110539 -17.459833,0.0078 -8.962096,3.113343 -13.16257,11.113313 -11.23897,21.405063 0.357708,1.91383 1.123821,4.80619 1.702474,6.42746 0.578653,1.62128 1.015523,2.94777 0.970823,2.94777 -0.216808,0 -3.003444,-6.19275 -3.823657,-8.49733 -1.62556,-4.56737 -2.090088,-7.08002 -2.0946,-11.32976 -0.0035,-3.32474 0.12018,-4.2947 0.812534,-6.37082 0.449182,-1.34694 1.331272,-3.24504 1.960197,-4.218001 5.211978,-8.063041 17.773951,-10.152803 32.909562,-5.474708 4.415802,1.364832 13.384492,5.504453 17.760272,8.197509 17.04149,10.48809 31.18287,26.48782 36.18057,40.93516 3.84716,11.12133 2.38666,20.26669 -4.05977,25.42157 -2.19947,1.7588 -6.62967,3.54959 -9.46469,3.82583 l -2.22013,0.21633 z"
         id="path46" />
      <path
         style="fill:#ffffff;fill-opacity:1;stroke-width:0.368595"
         d="m 99.118717,176.35044 c -0.170923,-0.14593 0.113825,-0.38401 0.632775,-0.52907 1.573248,-0.43976 1.741948,-1.41664 1.856938,-10.75325 0.0576,-4.67353 0.0586,-9.37974 0.002,-10.45825 l -0.10221,-1.96092 -0.66228,1.96092 c -0.78723,2.33092 -2.544368,4.92258 -3.125989,4.61064 -0.227324,-0.12192 -0.379926,0.0147 -0.339111,0.30362 0.137091,0.97046 -3.765026,2.46149 -6.485673,2.47824 -2.488668,0.0153 -5.81356,-0.89079 -6.595078,-1.79731 -0.444284,-0.51534 -0.517085,-6.4956 -0.107902,-8.86339 0.242755,-1.40471 0.314882,-1.27407 0.962346,1.74304 0.872237,4.06452 3.088663,6.29173 6.278397,6.30895 2.179333,0.0118 3.231232,-0.51554 4.535273,-2.27348 1.968184,-2.65326 2.089858,-6.42444 0.327275,-10.14358 -0.536257,-1.13153 -2.248509,-3.47805 -3.805006,-5.21448 -5.258515,-5.86643 -7.162638,-9.42286 -7.560815,-14.12172 -0.41822,-4.93537 1.407063,-9.41562 4.641126,-11.39189 2.051914,-1.25387 6.263007,-1.64265 9.374536,-0.86548 l 2.165591,0.5409 -0.18764,1.58574 c -0.10321,0.87216 -0.18919,2.61523 -0.19107,3.87349 -0.004,2.37859 -0.42007,3.06363 -0.749003,1.23192 -0.291039,-1.62069 -1.741041,-3.77411 -3.138819,-4.66151 -2.572853,-1.6334 -6.094929,-0.52144 -7.332186,2.31485 -0.74107,1.69883 -0.82864,4.66453 -0.187961,6.3655 0.546652,1.45131 2.840908,4.53507 5.324769,7.15712 2.785236,2.94019 4.93168,6.12573 6.02457,8.94108 l 0.97392,2.50891 0.008,-5.57575 c 0.008,-5.34643 -0.0232,-5.61974 -0.75698,-6.64534 -0.42091,-0.58828 -1.122418,-1.0696 -1.558914,-1.0696 -0.436496,0 -0.793627,-0.17292 -0.793627,-0.38428 0,-0.21135 2.525441,-0.38033 5.612091,-0.37552 3.08665,0.005 5.61209,0.17774 5.61209,0.38427 0,0.20654 -0.32394,0.37553 -0.71987,0.37553 -0.39593,0 -0.99221,0.2782 -1.32508,0.61822 -0.57941,0.59187 -0.60928,1.38582 -0.70092,18.62875 -0.0658,12.38856 0.0133,18.53115 0.25359,19.6784 0.52678,2.51528 1.64163,2.99944 6.57053,2.85345 2.19379,-0.065 3.92896,-0.25325 3.85594,-0.41838 -0.073,-0.16513 0.099,-0.56756 0.38215,-0.8943 0.2832,-0.32675 0.80073,-1.4765 1.15005,-2.555 0.43347,-1.33828 0.67234,-1.71732 0.75229,-1.19371 0.17836,1.16812 -0.53003,6.94778 -0.93519,7.63009 -0.29315,0.49369 -2.08587,0.57619 -9.99095,0.45977 -5.29854,-0.078 -9.773547,-0.26126 -9.944469,-0.40719 z m 38.088803,-4.97476 c 7.51909,-2.9472 11.5815,-10.22248 10.57682,-18.94173 -0.84532,-7.33609 -3.40884,-13.42097 -9.13913,-21.693 -9.61722,-13.88305 -24.60527,-25.38258 -39.912222,-30.62253 -5.274609,-1.80563 -9.823426,-2.594008 -14.928977,-2.58741 -9.69374,0.01251 -16.086471,3.80849 -18.613766,11.05274 -0.511926,1.46739 -1.020481,3.774 -1.130125,5.1258 -0.258705,3.18958 0.527047,8.18857 1.875825,11.93408 0.558646,1.55135 0.974365,2.82063 0.923818,2.82063 -0.05055,0 -0.638917,-1.12753 -1.307489,-2.50562 -2.884112,-5.94486 -4.224506,-11.23364 -4.234642,-16.7086 -0.0062,-3.35507 0.09854,-4.04419 1.006681,-6.62241 2.847424,-8.08387 10.588388,-12.164516 21.833783,-11.509668 33.946464,1.976787 74.604534,42.799458 68.138344,68.414208 -0.56357,2.23249 -1.64968,4.30823 -2.06606,3.94858 -0.19709,-0.17025 -0.24608,-0.0867 -0.11844,0.20191 0.31252,0.70674 -1.49147,2.84683 -3.91774,4.64766 -2.23008,1.65521 -5.79978,3.05587 -8.83078,3.46499 l -1.8707,0.25251 z"
         id="path44" />
      <path
         style="font-variation-settings:normal;opacity:1;vector-effect:none;fill:#008000;fill-opacity:0;stroke-width:8.73279;stroke-linecap:butt;stroke-linejoin:miter;stroke-miterlimit:4;stroke-dasharray:none;stroke-dashoffset:0;stroke-opacity:1;stop-color:#000000;stop-opacity:1"
         d="m 615.48173,875.64063 c 77.48692,-55.97812 79.92685,-187.9104 6.18145,-334.24544 C 559.15502,417.35852 463.40784,315.49904 361.79402,264.93654 312.62134,240.46847 284.07866,233.41369 241.40729,235.18101 c -23.76243,0.98417 -37.09771,3.15819 -49.86411,8.12924 -61.07572,23.78197 -90.93016,104.50235 -74.17847,200.56365 2.57053,14.74049 4.1489,27.32567 3.50749,27.96708 -1.77305,1.77305 -16.66587,-55.88985 -20.25359,-78.41905 -4.857587,-30.50334 -3.994019,-89.29927 1.63208,-111.12028 45.61735,-176.92838 293.2307,-116.50494 470.80868,114.88832 84.90166,110.63124 132.9031,228.56353 133.44725,327.85986 0.20539,37.47185 -6.53151,77.06336 -14.46265,84.99446 -2.03717,2.03718 -4.5642,7.13147 -5.6156,11.32065 -3.54653,14.13044 -31.67722,41.93485 -52.4639,51.85545 -22.51298,10.74444 -31.66414,11.94276 -18.48274,2.42024 z"
         id="path60"
         transform="matrix(0.1493452,0,0,0.11414394,47.129382,70.749523)" />
    </g>
  </g>
</svg>
